<?xml version="1.0" encoding="iso-8859-1"?>
<!-- Uploaded to: SVG Repo, www.svgrepo.com, Generator: SVG Repo Mixer Tools -->
<svg version="1.1" id="Layer_1" xmlns="http://www.w3.org/2000/svg" xmlns:xlink="http://www.w3.org/1999/xlink" 
	 viewBox="0 0 390.206 390.206" xml:space="preserve">
<path style="fill:#FFC10D;" d="M66.651,92.121V60.703H21.657v156.638h247.661v-114.36H77.511
	C71.564,102.982,66.651,98.069,66.651,92.121z"/>
<path style="fill:#56ACE0;" d="M368.549,21.657H88.307v59.604h240.614C351.16,81.261,366.352,70.982,368.549,21.657z"/>
<g>
	<rect x="291.038" y="102.982" style="fill:#FFFFFF;" width="26.57" height="37.366"/>
	<rect x="88.307" y="238.998" style="fill:#FFFFFF;" width="118.691" height="29.802"/>
</g>
<path style="fill:#56ACE0;" d="M133.883,308.364c0,17.907-14.61,32.517-32.517,32.517H21.657v27.669h80.226
	c33.034,0,60.186-27.087,60.186-60.186v-18.424H134.4v18.424H133.883z"/>
<g>
	<path style="fill:#194F82;" d="M379.345,0H77.446c-5.947,0-10.861,4.848-10.861,10.861v28.186H10.861
		C4.913,39.046,0,43.895,0,49.907v178.295c0,5.947,4.848,10.861,10.861,10.861h55.855v40.663c0,5.947,4.848,10.861,10.861,10.861
		h34.715v17.907c0,5.947-4.848,10.861-10.861,10.861h-90.57C4.913,319.354,0,324.202,0,330.214v49.131
		c0,5.947,4.848,10.861,10.861,10.861h91.022c44.994,0,81.842-36.848,81.842-81.842v-18.424h34.651
		c5.947,0,10.861-4.848,10.861-10.861v-40.663h51.459c5.947,0,10.861-4.848,10.861-10.861v-65.487h37.366
		c5.947,0,10.861-4.848,10.861-10.861V102.4c50.424-7.564,50.424-67.749,50.424-91.604C390.206,4.848,385.358,0,379.345,0z
		 M318.125,140.347h-26.57v-37.366h26.57V140.347z M269.382,217.341H21.657V60.703h44.994v31.418
		c0,5.947,4.848,10.861,10.861,10.861h191.871V217.341z M206.998,268.8H88.307v-29.802h118.691L206.998,268.8L206.998,268.8z
		 M161.487,308.364c0,33.034-27.087,60.186-60.186,60.186H21.657v-27.669h79.709c17.907,0,32.517-14.61,32.517-32.517v-17.907
		h27.604V308.364L161.487,308.364z M88.307,81.261V21.657h280.178c-2.198,49.325-17.325,59.604-39.564,59.604H88.307z"/>
	<path style="fill:#194F82;" d="M58.505,185.341c0,5.947,4.848,10.861,10.861,10.861h13.576c5.947,0,10.861-4.848,10.861-10.861
		c0-5.947-4.848-10.861-10.861-10.861H69.366C63.418,174.481,58.505,179.394,58.505,185.341z"/>
	<path style="fill:#194F82;" d="M138.731,196.202h13.576c5.947,0,10.861-4.848,10.861-10.861c0-5.947-4.848-10.861-10.861-10.861
		h-13.576c-5.947,0-10.861,4.848-10.861,10.861C127.871,191.289,132.784,196.202,138.731,196.202z"/>
	<path style="fill:#194F82;" d="M208.097,196.202h13.576c5.947,0,10.861-4.848,10.861-10.861c0-5.947-4.848-10.861-10.861-10.861
		h-13.576c-5.947,0-10.861,4.848-10.861,10.861C197.301,191.289,202.149,196.202,208.097,196.202z"/>
</g>
</svg>